<svg width="14" height="10" viewBox="0 0 14 10" fill="none" xmlns="http://www.w3.org/2000/svg">
<path fill-rule="evenodd" clip-rule="evenodd" d="M14 4.9999C14 4.86729 13.9473 4.74011 13.8536 4.64635C13.7598 4.55258 13.6326 4.4999 13.5 4.4999H1.70701L4.85401 1.3539C4.9005 1.30741 4.93737 1.25222 4.96253 1.19148C4.98769 1.13074 5.00064 1.06564 5.00064 0.999899C5.00064 0.934155 4.98769 0.869055 4.96253 0.808316C4.93737 0.747576 4.9005 0.692387 4.85401 0.645899C4.80752 0.599411 4.75233 0.562535 4.69159 0.537376C4.63085 0.512217 4.56575 0.499268 4.50001 0.499268C4.43426 0.499268 4.36916 0.512217 4.30842 0.537376C4.24769 0.562535 4.1925 0.599411 4.14601 0.645899L0.146009 4.6459C0.0994456 4.69234 0.0625027 4.74752 0.0372962 4.80827C0.0120898 4.86901 -0.00088501 4.93413 -0.00088501 4.9999C-0.00088501 5.06567 0.0120898 5.13079 0.0372962 5.19153C0.0625027 5.25228 0.0994456 5.30745 0.146009 5.3539L4.14601 9.3539C4.1925 9.40039 4.24769 9.43726 4.30842 9.46242C4.36916 9.48758 4.43426 9.50053 4.50001 9.50053C4.56575 9.50053 4.63085 9.48758 4.69159 9.46242C4.75233 9.43726 4.80752 9.40039 4.85401 9.3539C4.9005 9.30741 4.93737 9.25222 4.96253 9.19148C4.98769 9.13074 5.00064 9.06564 5.00064 8.9999C5.00064 8.93416 4.98769 8.86905 4.96253 8.80832C4.93737 8.74758 4.9005 8.69239 4.85401 8.6459L1.70701 5.4999H13.5C13.6326 5.4999 13.7598 5.44722 13.8536 5.35345C13.9473 5.25968 14 5.13251 14 4.9999Z" fill="black"/>
</svg>
